<svg id="图层_1" data-name="图层 1" xmlns="http://www.w3.org/2000/svg" viewBox="0 0 282.43 282.43"><defs><style>.cls-1{fill:#262c58;}.cls-2{fill:#fff;}</style></defs><title>logo2</title><path class="cls-1" d="M520.69,864.41H298.88a30.4,30.4,0,0,0-30.31,30.31v221.81a30.4,30.4,0,0,0,30.31,30.31H376.5l89.09-161.06,40.43,73-48.6,88.09h63.27A30.4,30.4,0,0,0,551,1116.53V894.72A30.4,30.4,0,0,0,520.69,864.41Z" transform="translate(-268.57 -864.41)"/><line class="cls-2" x1="197.02" y1="121.37" x2="107.93" y2="282.43"/><polygon class="cls-2" points="85.82 205.76 188.76 21.13 106.03 21.13 44.98 131.99 85.82 205.76"/><polygon class="cls-2" points="191.89 121.37 136.88 121.37 89.78 205.76 145.21 205.76 191.89 121.37"/><polygon class="cls-2" points="188.85 282.43 107.93 282.43 197.02 121.37 237.45 194.33 188.85 282.43"/></svg>